<svg width="19" height="13" viewBox="0 0 19 13" fill="none" xmlns="http://www.w3.org/2000/svg">
<g clip-path="url(#clip0_69_28)">
<path d="M12.3229 11.7426C12.7872 12.3423 13.3482 13.0001 13.3482 13.0001C16.753 12.884 18.0685 10.64 18.0685 10.64C18.0685 5.64889 15.8437 1.62508 15.8437 1.62508C13.619 -0.0386141 11.4911 7.64261e-05 11.4911 7.64261e-05L11.2783 0.251565C13.9092 1.06406 15.128 2.22478 15.128 2.22478C13.5223 1.3349 11.9554 0.889957 10.4851 0.735196C9.3631 0.599779 8.29911 0.638469 7.35119 0.754541C7.25446 0.754541 7.17708 0.773886 7.08036 0.793231C6.53869 0.831922 5.22321 1.04472 3.57887 1.76049C2.99851 2.03133 2.66964 2.20543 2.66964 2.20543C2.66964 2.20543 3.94643 0.986684 6.73214 0.174184L6.57738 7.64261e-05C6.57738 7.64261e-05 4.4494 -0.0386141 2.2247 1.62508C2.2247 1.62508 0 5.66823 0 10.64C0 10.64 1.29613 12.884 4.72024 13.0001C4.72024 13.0001 5.3006 12.3036 5.76488 11.7233C3.79167 11.1429 3.05655 9.90484 3.05655 9.90484C3.05655 9.90484 3.21131 10.0016 3.48214 10.1563C3.50149 10.1757 3.52083 10.195 3.54018 10.195C3.59821 10.2337 3.6369 10.2531 3.6756 10.2724C4.0625 10.4852 4.4494 10.6593 4.79762 10.7947C5.43601 11.0462 6.19048 11.2977 7.08036 11.4525C8.24107 11.6653 9.59524 11.7426 11.0848 11.4718C11.8199 11.3557 12.5744 11.1429 13.3482 10.8141C13.8899 10.6206 14.4896 10.3111 15.128 9.90484C15.128 9.90484 14.3542 11.1816 12.3229 11.7426ZM6.15179 9.20841C5.28125 9.20841 4.56548 8.4346 4.56548 7.48668C4.56548 6.53877 5.2619 5.76496 6.15179 5.76496C7.04167 5.76496 7.7381 6.53877 7.71875 7.48668C7.71875 8.4346 7.02232 9.20841 6.15179 9.20841ZM11.8006 9.20841C10.9301 9.20841 10.2143 8.4346 10.2143 7.48668C10.2143 6.53877 10.9107 5.76496 11.8006 5.76496C12.6905 5.76496 13.3869 6.53877 13.3869 7.48668C13.3676 8.4346 12.6711 9.20841 11.8006 9.20841Z" fill="white"/>
</g>
<defs>
<clipPath id="clip0_69_28">
<rect width="18.0685" height="13" fill="white"/>
</clipPath>
</defs>
</svg>
