<svg width="13" height="13" viewBox="0 0 13 13" fill="none" xmlns="http://www.w3.org/2000/svg">
<path d="M2.925 13H0.162498V4.30625H2.925V13ZM1.54375 3.0875C0.650001 3.0875 0 2.4375 0 1.54375C0 0.65 0.731251 0 1.54375 0C2.4375 0 3.0875 0.65 3.0875 1.54375C3.0875 2.4375 2.4375 3.0875 1.54375 3.0875ZM13 13H10.2375V8.2875C10.2375 6.90625 9.66875 6.5 8.85625 6.5C8.04375 6.5 7.23125 7.15 7.23125 8.36875V13H4.46875V4.30625H7.06875V5.525C7.3125 4.95625 8.28749 4.0625 9.66875 4.0625C11.2125 4.0625 12.8375 4.95625 12.8375 7.6375V13H13Z" fill="white"/>
</svg>
