<svg width="17" height="13" viewBox="0 0 17 13" fill="none" xmlns="http://www.w3.org/2000/svg">
<path d="M16.753 1.5C16.1248 1.8 15.4965 1.9 14.7636 2C15.4965 1.6 16.0201 1 16.2295 0.2C15.6012 0.6 14.8683 0.8 14.0306 1C13.4024 0.4 12.4601 0 11.5177 0C9.31886 0 7.64356 2 8.16709 4C5.34002 3.9 2.82707 2.6 1.04706 0.6C0.104706 2.1 0.628238 4 2.09413 5C1.57059 5 1.04706 4.8 0.523532 4.6C0.523532 6.1 1.6753 7.5 3.2459 7.9C2.72236 8 2.19883 8.1 1.6753 8C2.09413 9.3 3.3506 10.3 4.9212 10.3C3.66472 11.2 1.78001 11.7 0 11.5C1.57059 12.4 3.3506 13 5.23532 13C11.6224 13 15.1824 7.9 14.973 3.2C15.7059 2.8 16.3342 2.2 16.753 1.5Z" fill="white"/>
</svg>
