<svg width="15" height="13" viewBox="0 0 15 13" fill="none" xmlns="http://www.w3.org/2000/svg">
<path d="M0.890088 7.42512L0.936935 7.35485L3.98198 2.59989C4.02883 2.52962 4.12252 2.52962 4.16937 2.62332C4.68468 3.77107 5.1063 5.17647 4.91892 6.06656C4.82522 6.44134 4.59099 6.93323 4.30991 7.37827C4.28648 7.44854 4.23964 7.51881 4.19279 7.56566C4.16937 7.58909 4.14594 7.61251 4.0991 7.61251H0.960359C0.890088 7.58909 0.843242 7.49539 0.890088 7.42512Z" fill="white"/>
<path d="M14.4523 8.31532V9.06486C14.4523 9.11171 14.4288 9.13513 14.382 9.15856C14.1477 9.25225 13.3279 9.62703 13 10.0955C12.1333 11.2901 11.4775 13 10.0252 13H3.91171C1.75676 13 0 11.2432 0 9.06486V8.99459C0 8.94775 0.0468468 8.9009 0.0936937 8.9009H3.53694C3.60721 8.9009 3.65405 8.97117 3.65405 9.01802C3.63063 9.22883 3.67748 9.46306 3.77117 9.67387C3.98198 10.0955 4.4036 10.3297 4.84865 10.3297H6.53513V9.01802H4.87207C4.77838 9.01802 4.73153 8.92432 4.77838 8.85405C4.8018 8.83063 4.82523 8.80721 4.84865 8.76036C5.01261 8.52613 5.22342 8.1982 5.45766 7.8C5.62162 7.54234 5.76216 7.23784 5.87928 6.95676C5.9027 6.90991 5.92613 6.86306 5.94955 6.79279C5.97297 6.6991 6.01982 6.60541 6.04324 6.53513C6.06667 6.46486 6.09009 6.39459 6.11351 6.32432C6.16036 6.09009 6.18378 5.83243 6.18378 5.55135C6.18378 5.45766 6.18378 5.34054 6.16036 5.22342C6.16036 5.10631 6.13694 4.98919 6.13694 4.87207C6.13694 4.77838 6.11351 4.66126 6.09009 4.56757C6.06667 4.4036 6.04324 4.26306 5.9964 4.0991L5.97297 4.05225C5.94955 3.95856 5.92613 3.84144 5.87928 3.74775C5.78559 3.41982 5.66847 3.09189 5.55135 2.81081C5.5045 2.69369 5.45766 2.57658 5.41081 2.45946C5.34054 2.2955 5.27027 2.13153 5.2 1.99099C5.17658 1.92072 5.12973 1.87387 5.10631 1.8036C5.08288 1.73333 5.03604 1.66306 5.01261 1.59279C4.98919 1.54595 4.96577 1.4991 4.94234 1.45225L4.73153 1.07748C4.70811 1.03063 4.75495 0.96036 4.8018 0.983784L6.09009 1.33514L6.25405 1.38198L6.44144 1.42883L6.51171 1.45225V0.679279C6.51171 0.304505 6.81622 0 7.16757 0C7.35495 0 7.51892 0.0702703 7.63604 0.187387C7.75315 0.304505 7.82342 0.468468 7.82342 0.655856V1.78018L7.96396 1.82703C7.96396 1.82703 7.98739 1.82703 7.98739 1.85045C8.01081 1.87387 8.05766 1.92072 8.12793 1.96757C8.17477 2.01441 8.22162 2.06126 8.29189 2.10811C8.40901 2.2018 8.57297 2.34234 8.73694 2.48288C8.78378 2.52973 8.83063 2.55315 8.85405 2.6C9.06486 2.78739 9.2991 3.02162 9.53333 3.27928C9.6036 3.34955 9.65045 3.41982 9.72072 3.49009C9.79099 3.56036 9.83784 3.65405 9.90811 3.72432C9.97838 3.81802 10.0721 3.93514 10.1423 4.02883C10.1658 4.07568 10.2126 4.12252 10.236 4.19279C10.3297 4.33333 10.4 4.47387 10.4937 4.61441C10.5171 4.68468 10.564 4.75495 10.5874 4.82523C10.6811 5.01261 10.7514 5.2 10.7748 5.41081C10.7982 5.45766 10.7982 5.5045 10.7982 5.52793C10.8216 5.57477 10.8216 5.64504 10.8216 5.71532C10.845 5.92613 10.8216 6.11351 10.7982 6.32432C10.7748 6.41802 10.7514 6.48829 10.7279 6.58198C10.7045 6.65225 10.6811 6.74595 10.6342 6.83964C10.564 7.0036 10.4703 7.16757 10.3766 7.33153C10.3532 7.37838 10.3063 7.44865 10.2595 7.51892C10.2126 7.58919 10.1658 7.63604 10.1423 7.70631C10.0955 7.77658 10.0252 7.84685 9.97838 7.91712C9.93153 7.98739 9.88468 8.05766 9.81441 8.12793C9.74414 8.22162 9.65045 8.31532 9.58018 8.40901C9.53333 8.45586 9.48649 8.52613 9.41622 8.57297C9.36937 8.61982 9.32252 8.69009 9.25225 8.73694C9.18198 8.80721 9.11171 8.87748 9.04144 8.92432L8.9009 9.04144C8.87748 9.06486 8.85405 9.06486 8.83063 9.06486H7.8V10.3766H9.08829C9.36937 10.3766 9.65045 10.2829 9.86126 10.0955C9.93153 10.0252 10.2595 9.74414 10.6577 9.32252C10.6811 9.2991 10.6811 9.2991 10.7045 9.2991L14.2649 8.26847C14.4054 8.1982 14.4523 8.24504 14.4523 8.31532Z" fill="white"/>
</svg>
