<svg width="14" height="13" viewBox="0 0 14 13" fill="none" xmlns="http://www.w3.org/2000/svg">
<path d="M6.75 1.1747C8.53916 1.1747 8.78313 1.1747 9.51506 1.1747C10.1657 1.1747 10.491 1.33133 10.7349 1.40964C11.0602 1.56627 11.3042 1.64458 11.5482 1.87952C11.7922 2.11446 11.9548 2.3494 12.0361 2.66265C12.1175 2.89759 12.1988 3.21084 12.2801 3.83735C12.2801 4.54217 12.2801 4.6988 12.2801 6.5C12.2801 8.30121 12.2801 8.45783 12.2801 9.16265C12.2801 9.78916 12.1175 10.1024 12.0361 10.3373C11.8735 10.6506 11.7922 10.8855 11.5482 11.1205C11.3042 11.3554 11.0602 11.512 10.7349 11.5904C10.491 11.6687 10.1657 11.747 9.51506 11.8253C8.78313 11.8253 8.62048 11.8253 6.75 11.8253C4.87952 11.8253 4.71687 11.8253 3.98494 11.8253C3.33434 11.8253 3.00904 11.6687 2.76506 11.5904C2.43976 11.4337 2.19578 11.3554 1.95181 11.1205C1.70783 10.8855 1.54518 10.6506 1.46386 10.3373C1.38253 10.1024 1.30121 9.78916 1.21988 9.16265C1.21988 8.45783 1.21988 8.30121 1.21988 6.5C1.21988 4.6988 1.21988 4.54217 1.21988 3.83735C1.21988 3.21084 1.38253 2.89759 1.46386 2.66265C1.62651 2.3494 1.70783 2.11446 1.95181 1.87952C2.19578 1.64458 2.43976 1.48795 2.76506 1.40964C3.00904 1.33133 3.33434 1.25301 3.98494 1.1747C4.71687 1.1747 4.96084 1.1747 6.75 1.1747ZM6.75 0C4.87952 0 4.71687 0 3.98494 0C3.25301 0 2.76506 0.156627 2.35843 0.313253C1.95181 0.46988 1.54518 0.70482 1.13855 1.09639C0.731928 1.48795 0.569278 1.80121 0.325302 2.27109C0.162651 2.66265 0.0813253 3.13253 0 3.83735C0 4.54217 0 4.77711 0 6.5C0 8.30121 0 8.45783 0 9.16265C0 9.86747 0.162651 10.3373 0.325302 10.7289C0.487952 11.1205 0.731928 11.512 1.13855 11.9036C1.54518 12.2952 1.87048 12.4518 2.35843 12.6867C2.76506 12.8434 3.25301 12.9217 3.98494 13C4.71687 13 4.96084 13 6.75 13C8.53916 13 8.78313 13 9.51506 13C10.247 13 10.7349 12.8434 11.1416 12.6867C11.5482 12.5301 11.9548 12.2952 12.3614 11.9036C12.7681 11.512 12.9307 11.1988 13.1747 10.7289C13.3374 10.3373 13.4187 9.86747 13.5 9.16265C13.5 8.45783 13.5 8.22289 13.5 6.5C13.5 4.77711 13.5 4.54217 13.5 3.83735C13.5 3.13253 13.3374 2.66265 13.1747 2.27109C13.012 1.87952 12.7681 1.48795 12.3614 1.09639C11.9548 0.70482 11.6295 0.548193 11.1416 0.313253C10.7349 0.156627 10.247 0.0783133 9.51506 0C8.78313 0 8.62048 0 6.75 0Z" fill="white"/>
<path d="M6.75 3.13253C4.79819 3.13253 3.25301 4.62048 3.25301 6.5C3.25301 8.37952 4.79819 9.86747 6.75 9.86747C8.70181 9.86747 10.247 8.37952 10.247 6.5C10.247 4.62048 8.70181 3.13253 6.75 3.13253ZM6.75 8.69277C5.53012 8.69277 4.47289 7.75301 4.47289 6.5C4.47289 5.3253 5.4488 4.30723 6.75 4.30723C7.96988 4.30723 9.02711 5.24699 9.02711 6.5C9.02711 7.6747 7.96988 8.69277 6.75 8.69277Z" fill="white"/>
<path d="M10.3283 3.83735C10.7775 3.83735 11.1416 3.48673 11.1416 3.05422C11.1416 2.62171 10.7775 2.27109 10.3283 2.27109C9.87917 2.27109 9.51506 2.62171 9.51506 3.05422C9.51506 3.48673 9.87917 3.83735 10.3283 3.83735Z" fill="white"/>
</svg>
